<svg width="45" height="45" viewBox="0 0 45 45" fill="none" xmlns="http://www.w3.org/2000/svg">
<circle cx="22.5" cy="22.5" r="22.5" fill="url(#paint0_linear_4_30)"/>
<path d="M10.9377 19.3887H14.0734V27.4043H15.5207V29H10.9563V27.4043H12.3293V20.9844H10.9377V19.3887ZM12.0046 15.9839C12.0046 15.8231 12.0355 15.6715 12.0974 15.5293C12.1654 15.3809 12.252 15.2541 12.3571 15.1489C12.4685 15.0376 12.5983 14.951 12.7468 14.8892C12.8952 14.8211 13.0529 14.7871 13.2199 14.7871C13.3807 14.7871 13.5323 14.8211 13.6745 14.8892C13.8229 14.951 13.9497 15.0376 14.0549 15.1489C14.1662 15.2541 14.2528 15.3809 14.3146 15.5293C14.3827 15.6715 14.4167 15.8231 14.4167 15.9839C14.4167 16.1509 14.3827 16.3086 14.3146 16.457C14.2528 16.6055 14.1662 16.7384 14.0549 16.856C13.9497 16.9673 13.8229 17.057 13.6745 17.125C13.5323 17.1868 13.3807 17.2178 13.2199 17.2178C13.0529 17.2178 12.8952 17.1868 12.7468 17.125C12.5983 17.057 12.4685 16.9673 12.3571 16.856C12.252 16.7384 12.1654 16.6055 12.0974 16.457C12.0355 16.3086 12.0046 16.1509 12.0046 15.9839ZM24.978 21.4204H23.2153V20.8267C23.0112 20.8267 22.8009 20.8669 22.5845 20.9473C22.3742 21.0215 22.1763 21.139 21.9907 21.2998C21.8052 21.4544 21.6413 21.6554 21.499 21.9028C21.363 22.144 21.264 22.4316 21.2021 22.7656V27.4043H22.835V29H18.0664V27.4043H19.3931L19.4023 20.9844H18.0664V19.3887H21.1372V20.7153C21.2485 20.5174 21.3722 20.335 21.5083 20.168C21.6506 19.9948 21.8052 19.8464 21.9722 19.7227C22.1453 19.5928 22.334 19.4938 22.5381 19.4258C22.7484 19.3516 22.9741 19.3145 23.2153 19.3145C23.5369 19.3145 23.84 19.3145 24.1245 19.3145C24.409 19.3145 24.6935 19.3206 24.978 19.333V21.4204ZM31.0955 19.3887H33.3221V20.7896H31.0955V27.4043H32.5984V29H27.9227V27.4043H29.3699V20.7896H27.7835V19.3887H29.3699V17.8857C29.3823 17.3291 29.4627 16.8436 29.6111 16.4292C29.7596 16.0148 29.9699 15.6685 30.242 15.3901C30.5141 15.1118 30.8419 14.9046 31.2254 14.7686C31.6089 14.6325 32.0356 14.5645 32.5057 14.5645C32.8335 14.5645 33.1272 14.5799 33.387 14.6108C33.6468 14.6418 33.8787 14.6851 34.0828 14.7407C34.2869 14.7902 34.4663 14.8459 34.6209 14.9077C34.7817 14.9696 34.924 15.0314 35.0477 15.0933L34.5188 16.3271C34.3209 16.222 34.0612 16.1323 33.7396 16.0581C33.4241 15.9839 33.0932 15.9468 32.7469 15.9468C32.2335 15.9468 31.8284 16.1076 31.5315 16.4292C31.2409 16.7446 31.0955 17.2116 31.0955 17.8301V19.3887Z" fill="white"/>
<defs>
<linearGradient id="paint0_linear_4_30" x1="22.5" y1="0" x2="22.5" y2="45" gradientUnits="userSpaceOnUse">
<stop offset="0.9999" stop-color="#4DB77E"/>
<stop offset="1" stop-color="#FAC18C" stop-opacity="0"/>
</linearGradient>
</defs>
</svg>
